<?xml version="1.0" standalone="no"?>
<!DOCTYPE svg PUBLIC "-//W3C//DTD SVG 20010904//EN"
 "http://www.w3.org/TR/2001/REC-SVG-20010904/DTD/svg10.dtd">
<svg version="1.0" xmlns="http://www.w3.org/2000/svg"
 width="1080.000000pt" height="1080.000000pt" viewBox="0 0 1080.000000 1080.000000"
 preserveAspectRatio="xMidYMid meet">

<g transform="translate(0.000000,1080.000000) scale(0.100000,-0.100000)"
fill="#000000" stroke="none">
<path d="M1287 9983 c-4 -3 -7 -44 -7 -90 l0 -83 43 1 c34 1 37 2 17 8 -23 6
-25 12 -30 84 -6 76 -11 93 -23 80z"/>
<path d="M1552 9848 c-7 -7 -12 -21 -12 -32 1 -19 1 -19 11 -3 10 18 49 24 49
8 0 -5 -10 -13 -22 -17 -22 -7 -22 -7 -3 -14 17 -7 15 -9 -15 -17 -27 -7 -40
-19 -58 -54 -35 -65 -48 -76 -100 -83 -119 -16 -122 -17 -122 -37 0 -22 -3
-22 76 -9 50 8 67 7 90 -5 23 -12 25 -15 10 -15 -19 0 -19 0 -1 -14 17 -12 18
-18 6 -69 -13 -52 -13 -56 8 -78 22 -24 23 -24 223 -21 111 2 205 5 209 8 8 4
-3 34 -42 121 -10 23 -19 52 -19 64 0 19 4 21 35 15 28 -6 37 -3 42 10 8 23
-26 51 -80 64 -23 6 -50 13 -59 16 -13 4 -18 0 -18 -16 0 -39 -25 -15 -31 29
-3 25 -13 47 -22 53 -9 5 -17 18 -17 29 0 11 -10 23 -22 28 -13 5 -32 18 -42
30 -21 23 -55 28 -74 9z m-12 -208 c0 -5 -5 -10 -11 -10 -5 0 -7 5 -4 10 3 6
8 10 11 10 2 0 4 -4 4 -10z m-30 -60 c0 -5 -4 -10 -10 -10 -5 0 -10 5 -10 10
0 6 5 10 10 10 6 0 10 -4 10 -10z"/>
<path d="M2547 9773 c-4 -3 -7 -42 -7 -85 l0 -78 29 0 c41 0 57 22 41 59 -9
22 -9 34 0 51 9 18 8 25 -6 41 -17 19 -45 25 -57 12z m43 -28 c0 -8 -4 -15
-10 -15 -5 0 -10 7 -10 15 0 8 5 15 10 15 6 0 10 -7 10 -15z m0 -103 c0 -15
-2 -15 -10 -2 -13 20 -13 33 0 25 6 -3 10 -14 10 -23z"/>
<path d="M3214 9753 c-3 -16 -12 -52 -20 -82 -16 -57 -12 -76 9 -46 13 16 14
16 20 1 15 -37 22 -11 19 69 -3 84 -16 111 -28 58z"/>
<path d="M2177 9763 c-11 -10 -8 -153 2 -153 6 0 11 17 13 38 l3 37 17 -38
c27 -58 42 -43 46 44 3 78 -14 90 -20 14 l-3 -40 -14 43 c-15 44 -33 67 -44
55z"/>
<path d="M2297 9763 c-9 -8 -9 -116 -1 -137 8 -20 48 -21 64 -2 15 19 29 121
19 138 -10 17 -16 0 -26 -77 -5 -33 -13 -60 -18 -60 -6 0 -11 33 -13 73 -3 67
-9 82 -25 65z"/>
<path d="M2416 9755 c-10 -28 -7 -145 4 -145 6 0 13 7 17 16 5 15 7 15 15 0
10 -18 43 -22 53 -6 3 6 -1 10 -10 10 -25 0 -41 45 -26 74 7 13 11 32 9 42 -4
25 -53 32 -62 9z m31 -27 c-3 -7 -5 -2 -5 12 0 14 2 19 5 13 2 -7 2 -19 0 -25z"/>
<path d="M2650 9690 l0 -80 33 1 c23 1 26 3 10 6 -28 5 -31 40 -5 59 16 13 16
13 0 14 -28 0 -24 58 5 70 20 8 19 9 -10 9 l-33 1 0 -80z"/>
<path d="M2755 9723 c-3 -27 -7 -63 -10 -80 -5 -42 13 -43 22 -2 l6 31 22 -28
c12 -15 27 -24 33 -20 8 4 5 13 -9 27 -21 21 -21 25 -4 89 l7 25 -21 -24 c-20
-22 -21 -22 -21 -3 0 43 -19 31 -25 -15z"/>
<path d="M2959 9744 c-17 -46 -31 -125 -24 -132 4 -4 14 3 22 16 19 28 30 28
52 0 11 -12 23 -18 30 -14 9 6 9 11 -1 23 -7 9 -20 41 -28 71 -17 63 -35 76
-51 36z m31 -64 c0 -5 -4 -10 -10 -10 -5 0 -10 5 -10 10 0 6 5 10 10 10 6 0
10 -4 10 -10z"/>
<path d="M3076 9754 c-3 -9 -6 -42 -6 -74 0 -64 16 -84 54 -70 17 6 18 7 3 13
-11 4 -17 18 -17 39 0 48 -11 108 -20 108 -4 0 -11 -7 -14 -16z"/>
<path d="M3293 9754 c-3 -9 4 -36 17 -59 18 -33 21 -46 12 -61 -10 -17 -11
-17 -12 -1 0 9 -4 17 -10 17 -15 0 -12 -37 4 -43 45 -17 69 70 28 99 -26 18
-31 60 -6 50 8 -3 12 -2 9 4 -10 16 -35 12 -42 -6z"/>
<path d="M3385 9727 c-8 -54 -3 -112 10 -112 6 0 11 14 13 30 6 49 22 54 22 7
0 -23 4 -42 9 -42 9 0 21 71 21 126 0 41 -17 45 -26 7 -10 -48 -11 -49 -19
-10 -10 49 -22 47 -30 -6z"/>
<path d="M3497 9763 c-4 -3 -7 -42 -7 -85 0 -81 3 -86 45 -68 19 8 19 9 -2 9
-18 1 -23 7 -23 26 0 16 6 25 15 25 8 0 15 5 15 10 0 6 -7 10 -15 10 -31 0
-10 60 25 73 8 3 1 6 -16 6 -17 1 -34 -2 -37 -6z"/>
<path d="M3590 9688 c1 -70 3 -80 14 -66 11 16 14 16 29 1 10 -10 22 -13 34
-8 16 7 16 9 2 12 -28 7 -40 48 -24 79 18 35 4 64 -30 64 -25 0 -25 -1 -25
-82z m40 51 c0 -11 -4 -17 -10 -14 -5 3 -10 13 -10 21 0 8 5 14 10 14 6 0 10
-9 10 -21z"/>
<path d="M3720 9751 c-5 -11 -10 -42 -10 -69 0 -83 49 -99 70 -23 13 48 5 88
-20 101 -25 13 -28 13 -40 -9z m30 -68 c0 -41 -3 -54 -10 -43 -11 17 -13 61
-4 84 11 28 14 18 14 -41z"/>
<path d="M3822 9745 c0 -53 22 -130 37 -130 16 0 25 25 35 103 8 65 -12 69
-31 6 -6 -21 -12 -32 -13 -24 0 8 -7 29 -15 45 l-13 30 0 -30z"/>
<path d="M1765 9742 c-7 -20 -9 -18 73 -46 62 -21 71 -22 76 -9 8 21 11 19
-72 46 -60 20 -72 21 -77 9z"/>
</g>
</svg>
