<?xml version="1.0" standalone="no"?>
<!DOCTYPE svg PUBLIC "-//W3C//DTD SVG 20010904//EN"
 "http://www.w3.org/TR/2001/REC-SVG-20010904/DTD/svg10.dtd">
<svg version="1.0" xmlns="http://www.w3.org/2000/svg"
 width="1080.000000pt" height="1080.000000pt" viewBox="0 0 1080.000000 1080.000000"
 preserveAspectRatio="xMidYMid meet">

<g transform="translate(0.000000,1080.000000) scale(0.100000,-0.100000)"
fill="#000000" stroke="none">
<path d="M1430 8550 l0 -150 44 0 c55 0 106 10 106 21 0 5 -21 6 -47 4 -31 -4
-49 -1 -55 7 -4 7 -8 63 -8 125 0 120 -4 143 -26 143 -11 0 -14 -28 -14 -150z"/>
<path d="M1885 8464 c-47 -51 -10 -135 41 -93 11 9 14 8 14 -7 0 -13 -8 -19
-26 -21 -15 0 -44 -9 -65 -19 -34 -15 -40 -23 -46 -56 -3 -22 -11 -45 -17 -51
-6 -7 -22 -29 -36 -50 -14 -20 -32 -39 -40 -41 -17 -5 -133 -21 -222 -31 l-58
-6 0 -39 0 -39 33 10 c17 5 54 12 81 15 27 3 71 9 98 13 36 6 48 5 48 -5 0 -7
12 -14 27 -16 40 -5 41 -28 1 -29 -30 -2 -30 -2 -5 -6 26 -4 27 -6 27 -71 -1
-43 -6 -74 -15 -86 -21 -28 -18 -62 6 -80 13 -9 18 -19 14 -27 -6 -8 -4 -10 5
-4 10 6 12 4 7 -8 -7 -20 32 -25 168 -23 55 1 205 3 333 4 224 2 232 3 223 21
-6 10 -7 21 -4 25 3 3 1 6 -5 6 -7 0 -11 3 -10 8 1 4 -22 56 -50 116 -61 127
-69 169 -34 174 13 2 43 -3 68 -12 l45 -15 -3 51 c-3 48 -5 52 -38 63 -19 7
-48 19 -65 25 -34 15 -38 16 -80 23 -16 2 -47 12 -69 21 -48 20 -60 20 -23 0
27 -15 27 -15 10 -44 -9 -17 -20 -30 -24 -30 -14 0 -29 54 -29 103 0 55 -12
77 -42 77 -14 0 -18 8 -18 34 0 42 -22 66 -60 66 -21 0 -29 6 -34 25 -7 26
-51 55 -86 55 -12 0 -32 -12 -45 -26z m81 -44 c0 -15 -10 -22 -41 -28 -30 -6
-41 -5 -43 6 -6 22 19 42 52 42 25 0 32 -4 32 -20z m-22 -121 c-6 -11 -24 -2
-24 11 0 5 7 7 15 4 8 -4 12 -10 9 -15z m-69 -169 c3 -5 -1 -10 -10 -10 -9 0
-13 5 -10 10 3 6 8 10 10 10 2 0 7 -4 10 -10z m-17 -19 c10 -6 7 -10 -12 -13
-25 -5 -33 1 -19 15 8 9 15 9 31 -2z m-48 -86 c0 -20 -5 -25 -27 -25 l-26 0
23 25 c13 14 25 25 27 25 2 0 3 -11 3 -25z m300 -41 c-8 -8 -22 -20 -32 -25
-19 -10 -19 -9 -3 15 10 14 24 26 32 26 13 0 13 -3 3 -16z m-313 0 c-3 -3 -12
-4 -19 -1 -8 3 -5 6 6 6 11 1 17 -2 13 -5z m413 -14 c-19 -13 -30 -13 -30 0 0
6 10 10 23 10 18 0 19 -2 7 -10z"/>
<path d="M3536 8338 c-8 -25 -16 -236 -10 -251 12 -33 104 -28 126 6 14 22 8
66 -12 85 l-20 19 22 40 c20 37 21 43 8 68 -21 40 -105 64 -114 33z m72 -32
c2 -10 1 -30 -3 -44 -7 -25 -8 -26 -15 -7 -14 32 -12 77 3 73 6 -3 14 -13 15
-22z m-4 -152 c10 -27 7 -54 -8 -54 -10 0 -14 11 -13 35 1 37 11 46 21 19z"/>
<path d="M4662 8333 c-5 -10 -13 -40 -17 -68 -4 -27 -18 -84 -31 -125 -13 -41
-21 -76 -19 -78 7 -7 27 10 46 42 17 27 19 29 19 9 0 -26 34 -48 58 -38 14 6
13 8 -7 16 l-24 9 6 125 c6 105 4 125 -8 125 -8 0 -18 -8 -23 -17z"/>
<path d="M3125 8323 c-10 -28 -19 -177 -11 -206 14 -58 69 -75 110 -34 36 36
63 247 32 247 -19 0 -23 -16 -36 -127 -14 -131 -26 -152 -50 -92 -9 20 -11 59
-8 117 3 48 3 93 1 100 -7 18 -30 15 -38 -5z"/>
<path d="M3343 8333 c-22 -4 -23 -9 -23 -97 0 -52 -2 -106 -5 -122 -3 -16 -1
-35 4 -43 14 -21 41 4 41 38 l0 26 19 -32 c26 -42 57 -51 84 -24 12 11 18 24
13 28 -4 4 -11 1 -15 -6 -12 -19 -25 -8 -54 43 l-24 44 22 23 c27 29 39 81 22
102 -14 17 -51 26 -84 20z m45 -47 c2 -15 0 -35 -3 -44 -6 -15 -8 -15 -15 3
-5 11 -9 33 -9 48 -1 37 23 31 27 -7z"/>
<path d="M3758 8333 l-48 -4 -1 -120 c-1 -65 -2 -125 -3 -131 -1 -9 16 -13 53
-13 35 0 56 5 59 13 2 8 -9 12 -38 12 -42 0 -42 0 -36 31 3 17 6 35 6 39 0 4
11 11 25 14 14 4 23 11 20 15 -3 5 -14 7 -25 4 -18 -5 -20 0 -20 55 l0 60 35
6 c19 4 35 11 35 16 0 6 -3 9 -7 8 -5 -1 -29 -3 -55 -5z"/>
<path d="M3896 8313 c-12 -66 -28 -244 -22 -250 13 -13 30 17 41 74 12 55 13
56 20 28 18 -66 61 -95 93 -63 18 18 14 33 -4 17 -14 -11 -18 -10 -30 6 -8 10
-19 35 -24 54 -8 30 -5 43 16 87 14 29 23 58 19 64 -10 16 -22 3 -47 -48 l-22
-47 -5 49 c-7 55 -26 72 -35 29z"/>
<path d="M4235 8310 c-16 -32 -39 -127 -49 -202 -4 -37 -2 -48 8 -48 18 0 32
18 40 53 9 39 45 36 71 -6 22 -35 53 -47 66 -25 13 19 11 28 -5 28 -16 0 -41
62 -51 125 -10 58 -32 105 -49 105 -9 0 -22 -13 -31 -30z m39 -112 c6 -31 4
-38 -9 -38 -17 0 -18 4 -9 49 8 38 9 37 18 -11z"/>
<path d="M4426 8325 c-3 -9 -6 -70 -6 -136 0 -116 0 -119 24 -125 35 -8 89 -1
94 14 2 8 -7 12 -26 12 l-30 0 -6 83 c-4 45 -7 100 -9 122 -2 42 -29 61 -41
30z"/>
<path d="M4792 8320 c-19 -32 -14 -69 13 -95 43 -39 55 -135 18 -135 -12 0
-14 7 -10 30 5 23 3 28 -8 23 -18 -6 -30 -46 -21 -68 6 -16 53 -20 72 -7 28
19 43 86 28 126 -3 9 -21 25 -40 37 -35 21 -43 50 -24 79 9 13 12 13 24 -2 16
-22 26 -23 26 -3 0 15 -29 35 -52 35 -7 0 -19 -9 -26 -20z"/>
<path d="M4946 8332 c-2 -4 -6 -66 -7 -137 -2 -114 0 -130 14 -133 18 -4 25
17 29 87 4 67 25 63 33 -6 8 -75 13 -89 26 -76 5 5 12 69 16 142 6 127 5 133
-13 129 -15 -2 -20 -14 -24 -57 -7 -76 -26 -76 -34 -1 -5 41 -11 60 -21 60 -8
0 -16 -4 -19 -8z"/>
<path d="M5164 8333 l-41 -4 -7 -76 c-3 -42 -6 -103 -6 -135 l0 -59 52 3 c64
4 80 28 18 28 -34 0 -41 3 -36 16 3 9 6 26 6 39 0 18 7 25 30 30 17 4 28 11
24 16 -3 5 -14 7 -25 4 -25 -8 -33 13 -25 70 7 41 10 45 42 51 31 6 51 26 22
22 -7 -1 -31 -3 -54 -5z"/>
<path d="M5303 8333 c-25 -5 -23 7 -27 -235 -1 -42 22 -48 35 -9 l11 31 28
-30 c15 -16 32 -30 38 -30 16 0 58 38 50 46 -4 4 -14 1 -22 -5 -13 -11 -20 -5
-45 35 l-29 48 24 29 c16 19 24 41 24 67 0 34 -4 39 -31 49 -18 6 -32 10 -33
10 -1 -1 -11 -4 -23 -6z m45 -37 c5 -26 -8 -70 -18 -60 -7 8 -14 54 -11 77 2
15 26 1 29 -17z"/>
<path d="M5650 8331 c0 -6 5 -13 10 -16 6 -3 10 -21 10 -38 1 -18 9 -72 18
-122 16 -85 19 -90 42 -90 23 0 26 6 37 62 19 97 30 203 22 209 -20 12 -47
-36 -54 -97 -8 -66 -17 -64 -30 6 -8 46 -31 95 -45 95 -6 0 -10 -4 -10 -9z"/>
<path d="M2916 8299 c-3 -17 -6 -78 -6 -135 0 -82 3 -104 14 -104 20 0 43 30
29 38 -8 5 -9 25 -3 62 4 30 8 47 9 38 0 -10 13 -43 27 -73 22 -45 31 -55 48
-53 25 4 34 48 35 171 1 59 -2 77 -13 77 -20 0 -26 -23 -26 -96 0 -64 -12 -78
-24 -29 -4 14 -16 50 -27 80 -24 65 -52 75 -63 24z"/>
<path d="M5493 8293 c-21 -52 -14 -184 12 -213 39 -43 78 -15 96 69 23 107 -5
181 -68 181 -18 0 -28 -9 -40 -37z m57 -105 c0 -84 -11 -121 -24 -75 -8 29 -8
151 0 172 13 34 24 -9 24 -97z"/>
<path d="M2238 8284 l-4 -35 115 -36 c64 -19 122 -38 129 -40 8 -4 12 6 12 29
l0 35 -102 28 c-57 15 -113 34 -124 41 -21 12 -22 11 -26 -22z"/>
</g>
</svg>
