<?xml version="1.0" standalone="no"?>
<!DOCTYPE svg PUBLIC "-//W3C//DTD SVG 20010904//EN"
 "http://www.w3.org/TR/2001/REC-SVG-20010904/DTD/svg10.dtd">
<svg version="1.0" xmlns="http://www.w3.org/2000/svg"
 width="526.000000pt" height="138.000000pt" viewBox="0 0 526.000000 138.000000"
 preserveAspectRatio="xMidYMid meet">

<g transform="translate(0.000000,138.000000) scale(0.100000,-0.100000)"
fill="#000000" stroke="none">
<path d="M330 990 l0 -150 44 0 c54 0 106 10 106 21 0 4 -21 6 -47 4 -30 -3
-50 0 -55 8 -4 7 -8 62 -8 124 0 120 -4 143 -26 143 -11 0 -14 -28 -14 -150z"/>
<path d="M785 905 c-26 -25 -29 -42 -15 -85 8 -24 8 -24 9 6 1 16 6 35 13 42
18 18 78 16 78 -3 0 -17 -30 -35 -59 -35 -12 0 -21 -6 -21 -14 0 -15 16 -16
38 -3 8 6 12 1 12 -13 0 -12 -4 -18 -10 -15 -5 3 -16 3 -22 -2 -7 -4 -17 -8
-23 -8 -51 -4 -85 -38 -85 -84 0 -10 -9 -29 -21 -42 -11 -13 -27 -36 -35 -50
-7 -15 -20 -29 -29 -33 -15 -6 -244 -36 -272 -36 -8 0 -13 -14 -13 -40 0 -45
-1 -44 34 -30 14 5 64 14 111 20 46 6 92 13 101 17 13 5 16 2 12 -13 -4 -17
-1 -19 22 -16 16 2 31 -3 39 -12 12 -14 8 -16 -30 -17 -32 0 -39 -3 -24 -8 11
-5 26 -6 33 -4 19 8 17 -124 -3 -143 -26 -26 -17 -94 12 -94 11 0 14 -7 9 -27
-4 -19 -3 -23 2 -14 8 11 10 11 14 0 5 -14 30 -15 493 -11 153 2 225 6 215 12
-12 8 -12 10 5 10 18 1 19 1 3 11 -10 5 -18 15 -18 22 0 20 -61 160 -78 180
-8 9 -17 42 -20 72 -4 52 -4 54 19 51 13 -1 37 -8 52 -14 49 -21 57 -16 57 32
0 43 0 44 -52 65 -29 12 -61 26 -70 31 -13 7 -18 7 -18 -2 0 -10 -2 -10 -8 -1
-4 6 -25 14 -47 18 -22 4 -46 12 -53 18 -7 5 -15 7 -19 3 -3 -3 -2 -6 3 -6 5
0 10 -9 10 -20 0 -11 -5 -20 -11 -20 -5 0 -3 -5 5 -10 13 -8 12 -10 -3 -10
-15 0 -16 -3 -6 -22 l11 -23 -18 21 c-34 37 -44 63 -44 120 0 53 -2 56 -30 67
-25 9 -30 17 -30 43 0 40 -22 64 -59 64 -20 0 -29 7 -38 30 -20 52 -88 66
-128 25z m62 -161 c-3 -3 -12 -4 -19 -1 -8 3 -5 6 6 6 11 1 17 -2 13 -5z m-80
-178 c-13 -10 -15 -15 -5 -18 7 -3 1 -7 -14 -10 -32 -6 -28 14 5 30 30 15 35
14 14 -2z m-61 -123 c-3 -3 -13 -3 -22 1 -15 6 -15 8 2 27 l19 21 3 -22 c2
-12 1 -24 -2 -27z m292 -28 c-35 -32 -44 -32 -21 0 10 13 25 25 33 25 10 0 6
-8 -12 -25z m-301 9 c-3 -3 -12 -4 -19 -1 -8 3 -5 6 6 6 11 1 17 -2 13 -5z
m420 -18 c0 -8 -8 -11 -19 -8 -10 2 -18 8 -18 13 0 5 8 9 18 9 10 0 19 -6 19
-14z"/>
<path d="M2436 778 c-8 -25 -16 -236 -10 -251 12 -33 104 -28 126 6 14 23 8
66 -13 85 l-20 20 20 33 c27 44 26 60 -4 93 -17 19 -34 26 -60 26 -20 0 -37
-6 -39 -12z m72 -32 c2 -10 0 -30 -4 -44 l-7 -27 -7 25 c-13 41 -11 72 3 68 6
-3 14 -13 15 -22z m-4 -152 c9 -24 7 -54 -4 -54 -5 0 -10 3 -11 8 0 4 -2 19
-4 35 -4 29 9 37 19 11z"/>
<path d="M3562 773 c-5 -10 -13 -40 -17 -67 -6 -42 -34 -144 -52 -192 -11 -30
25 -12 43 21 17 33 19 34 24 14 7 -29 32 -44 56 -35 18 7 17 9 -5 17 l-24 9 6
125 c6 105 4 125 -8 125 -8 0 -18 -8 -23 -17z"/>
<path d="M2025 763 c-10 -28 -19 -177 -11 -206 14 -58 69 -75 110 -34 17 17
26 43 34 100 16 107 16 147 -3 147 -17 0 -21 -14 -35 -130 -17 -131 -26 -148
-50 -89 -9 21 -11 57 -7 115 3 47 4 91 0 99 -7 20 -29 19 -38 -2z"/>
<path d="M2238 773 c-16 -4 -18 -17 -18 -97 0 -52 -2 -106 -5 -122 -3 -16 -1
-35 4 -43 14 -21 41 4 41 38 l0 26 19 -32 c26 -42 57 -51 84 -24 12 11 18 24
13 28 -4 4 -11 1 -16 -7 -12 -19 -32 -1 -55 50 -18 40 -18 41 2 63 27 29 37
77 21 100 -14 18 -61 29 -90 20z m50 -47 c2 -15 0 -35 -3 -44 -6 -15 -8 -15
-15 3 -5 11 -9 33 -9 48 -1 37 23 31 27 -7z"/>
<path d="M2659 773 l-47 -4 -1 -112 c-1 -62 -3 -121 -4 -132 -2 -18 4 -20 52
-20 35 0 56 5 59 13 2 8 -9 12 -38 12 -42 0 -42 0 -36 31 3 17 6 35 6 39 0 4
11 11 25 14 14 4 25 11 25 17 0 7 -10 9 -25 5 -25 -6 -25 -5 -25 53 l0 59 35
6 c19 4 35 11 35 16 0 6 -3 9 -7 8 -5 -1 -29 -3 -54 -5z"/>
<path d="M2796 753 c-12 -66 -28 -244 -22 -250 13 -13 30 17 41 74 12 55 13
56 20 28 18 -66 61 -95 93 -63 18 18 14 33 -4 17 -14 -11 -18 -10 -30 6 -8 11
-19 36 -24 56 -9 31 -7 43 9 71 23 39 30 71 16 77 -6 2 -21 -18 -35 -45 l-24
-49 -6 49 c-6 55 -25 72 -34 29z"/>
<path d="M3135 750 c-16 -32 -39 -127 -49 -202 -4 -37 -2 -48 8 -48 18 0 32
18 40 53 9 39 45 36 71 -6 22 -35 53 -47 66 -25 13 19 11 28 -6 28 -18 0 -33
34 -47 110 -21 115 -52 149 -83 90z m39 -112 c6 -31 4 -38 -9 -38 -17 0 -18 4
-9 49 8 38 9 37 18 -11z"/>
<path d="M3326 765 c-3 -8 -6 -67 -7 -131 -1 -132 1 -136 70 -132 50 3 71 28
23 28 -29 0 -29 1 -35 68 -4 37 -7 86 -7 109 0 23 -3 48 -6 57 -8 20 -30 21
-38 1z"/>
<path d="M3690 761 c-17 -33 -11 -71 15 -95 13 -12 28 -33 33 -47 13 -34 3
-89 -15 -89 -12 0 -14 7 -10 30 5 23 3 28 -8 23 -18 -6 -30 -46 -21 -68 6 -16
53 -20 72 -7 31 21 44 94 24 133 -6 10 -24 26 -40 34 -31 16 -39 46 -20 75 9
13 12 13 24 -2 16 -22 26 -23 26 -3 0 16 -30 35 -54 35 -8 0 -20 -9 -26 -19z"/>
<path d="M3846 772 c-2 -4 -6 -66 -7 -137 -2 -98 1 -130 10 -133 20 -7 31 18
31 75 0 45 12 74 26 61 5 -5 11 -58 13 -105 1 -21 6 -33 15 -33 11 0 16 25 21
108 10 170 10 172 -10 172 -15 0 -23 -22 -27 -79 -5 -59 -25 -47 -32 19 -5 41
-11 60 -21 60 -8 0 -16 -4 -19 -8z"/>
<path d="M4064 773 l-41 -4 -7 -76 c-3 -42 -6 -103 -6 -135 l0 -59 52 3 c64 4
80 28 18 28 -34 0 -41 3 -36 16 3 9 6 26 6 39 0 17 7 24 31 29 18 3 28 10 24
17 -4 6 -16 8 -27 6 -25 -7 -32 12 -24 68 7 41 10 45 42 51 31 6 51 26 22 22
-7 -1 -31 -3 -54 -5z"/>
<path d="M4203 772 c-25 -4 -23 8 -27 -234 -1 -33 20 -51 29 -24 3 9 7 23 10
32 4 13 11 10 34 -15 34 -36 51 -39 76 -11 21 23 13 39 -9 21 -13 -11 -20 -5
-45 35 l-29 48 24 29 c19 23 24 39 22 71 -3 36 -6 41 -33 46 -16 3 -40 4 -52
2z m45 -36 c5 -26 -8 -70 -18 -60 -7 8 -14 54 -11 77 2 15 26 1 29 -17z"/>
<path d="M4562 743 c4 -21 16 -83 26 -138 16 -95 18 -100 42 -100 23 0 26 6
37 62 18 92 30 203 23 208 -20 13 -44 -27 -54 -91 l-12 -69 -13 55 c-15 61
-37 110 -50 110 -4 0 -4 -17 1 -37z"/>
<path d="M1816 733 c-3 -21 -6 -82 -6 -135 0 -77 3 -98 14 -98 20 0 43 30 29
38 -8 5 -9 26 -4 62 6 49 8 52 14 26 5 -15 17 -48 29 -73 16 -34 25 -43 42
-41 25 4 35 46 35 166 1 64 -2 82 -13 82 -20 0 -26 -23 -26 -96 0 -64 -12 -78
-24 -29 -32 126 -77 175 -90 98z"/>
<path d="M4398 748 c-8 -14 -13 -58 -13 -114 0 -76 3 -95 19 -113 40 -45 80
-16 97 72 15 73 5 142 -24 162 -31 22 -64 19 -79 -7z m52 -120 c0 -82 -10
-118 -24 -82 -8 21 -8 158 0 179 13 34 24 -9 24 -97z"/>
<path d="M1140 741 c0 -11 -3 -26 -6 -35 -4 -12 19 -23 113 -53 65 -20 122
-38 128 -38 5 0 10 14 11 31 l2 31 -102 28 c-55 16 -111 34 -123 42 -21 12
-23 12 -23 -6z"/>
</g>
</svg>
