<?xml version="1.0" standalone="no"?>
<!DOCTYPE svg PUBLIC "-//W3C//DTD SVG 20010904//EN"
 "http://www.w3.org/TR/2001/REC-SVG-20010904/DTD/svg10.dtd">
<svg version="1.0" xmlns="http://www.w3.org/2000/svg"
 width="275.000000pt" height="138.000000pt" viewBox="0 0 275.000000 138.000000"
 preserveAspectRatio="xMidYMid meet">

<g transform="translate(0.000000,138.000000) scale(0.100000,-0.100000)"
fill="#000000" stroke="none">
<path d="M160 963 c0 -76 1 -78 25 -79 14 -1 25 2 25 7 0 5 -4 9 -9 9 -6 0
-13 32 -17 70 -3 39 -11 70 -15 70 -5 0 -9 -35 -9 -77z"/>
<path d="M413 923 c-25 -10 -14 -30 15 -26 23 4 25 3 11 -9 -9 -7 -14 -18 -12
-24 2 -5 -8 -14 -21 -20 -14 -5 -40 -31 -58 -59 -35 -52 -30 -50 -150 -70 -26
-4 -38 -11 -38 -22 0 -13 9 -15 63 -10 57 6 91 -1 93 -20 0 -4 4 -15 8 -25 4
-9 3 -33 -3 -54 -11 -41 -3 -67 25 -78 10 -4 98 -6 196 -6 204 2 196 -3 153
94 -35 80 -34 96 10 96 70 0 33 47 -54 70 -38 10 -46 9 -53 -4 -13 -23 -25
-12 -32 28 -4 19 -13 39 -21 46 -8 7 -15 18 -15 25 0 15 -78 75 -94 74 -6 0
-17 -3 -23 -6z"/>
<path d="M1317 853 c-10 -17 -16 -129 -8 -142 6 -9 18 -11 35 -7 25 6 26 10
26 71 0 53 -3 66 -19 75 -23 12 -28 12 -34 3z m33 -29 c0 -8 -5 -12 -10 -9 -6
4 -8 11 -5 16 9 14 15 11 15 -7z"/>
<path d="M1087 844 c-4 -4 -7 -36 -7 -70 0 -55 3 -63 21 -69 33 -11 52 17 57
81 6 74 -13 65 -23 -11 -8 -65 -25 -73 -26 -12 -1 52 -12 91 -22 81z"/>
<path d="M1203 843 c-9 -3 -13 -27 -13 -70 0 -55 3 -64 15 -59 9 3 24 0 35 -6
25 -16 39 -2 15 16 -15 11 -17 21 -11 63 5 41 3 52 -10 57 -8 3 -16 6 -17 5
-1 0 -8 -3 -14 -6z"/>
<path d="M1410 775 c0 -71 1 -75 23 -75 16 0 19 3 8 9 -9 6 -12 19 -8 39 3 16
2 33 -3 38 -6 6 -4 20 5 37 13 25 12 27 -6 27 -17 0 -19 -7 -19 -75z"/>
<path d="M1796 834 c-8 -20 -8 -98 0 -118 3 -9 17 -16 31 -16 21 0 23 3 14 14
-7 8 -15 40 -18 71 -6 57 -16 77 -27 49z"/>
<path d="M1910 793 c-7 -32 -15 -63 -17 -70 -3 -8 5 -11 23 -9 16 2 30 9 32
15 6 19 -8 121 -17 121 -4 0 -14 -26 -21 -57z"/>
<path d="M2002 841 c-11 -7 -11 -15 2 -46 21 -50 21 -76 0 -68 -12 4 -15 2
-12 -8 8 -25 37 -22 49 5 10 20 8 30 -10 59 -23 38 -28 62 -9 51 7 -4 8 -3 4
4 -8 14 -7 14 -24 3z"/>
<path d="M2122 824 c-10 -28 -11 -28 -17 -6 -4 12 -11 22 -15 22 -11 0 -21
-76 -14 -105 7 -28 24 -24 24 6 0 10 5 19 10 19 6 0 10 -12 10 -27 1 -41 16
-9 23 47 8 57 -6 85 -21 44z"/>
<path d="M2180 824 c-12 -30 -13 -104 -2 -120 4 -6 16 -8 26 -4 17 6 18 7 3
13 -22 8 -22 33 1 46 16 9 16 10 0 16 -22 9 -23 28 -3 45 19 16 19 30 0 30 -9
0 -20 -12 -25 -26z"/>
<path d="M2269 840 c-1 -13 -1 -108 0 -117 1 -5 18 -9 38 -11 34 -2 35 -1 19
11 -16 12 -18 21 -12 62 6 35 4 50 -6 56 -18 12 -38 11 -39 -1z m31 -16 c0 -8
-5 -12 -10 -9 -6 4 -8 11 -5 16 9 14 15 11 15 -7z"/>
<path d="M2379 810 c-12 -38 -8 -72 11 -100 16 -24 50 23 50 69 0 41 -7 55
-32 64 -14 5 -20 -2 -29 -33z m30 -37 c0 -41 -2 -45 -11 -26 -10 20 -4 73 7
73 3 0 5 -21 4 -47z"/>
<path d="M2520 821 l-13 -34 -14 27 c-7 14 -15 26 -17 26 -1 0 1 -25 5 -56 8
-59 20 -81 38 -70 12 8 24 84 19 117 -5 23 -6 22 -18 -10z"/>
<path d="M970 774 c0 -41 4 -63 10 -59 6 3 10 16 10 28 1 20 2 20 16 -5 8 -16
18 -28 23 -28 12 0 21 37 21 83 0 46 -20 40 -21 -6 l-1 -32 -10 30 c-27 76
-48 72 -48 -11z"/>
<path d="M1506 820 c-12 -60 -16 -110 -7 -110 5 0 11 10 14 22 l6 22 27 -24
c24 -22 26 -22 18 -5 -4 11 -8 39 -8 62 0 31 -4 39 -12 32 -9 -7 -15 -5 -22 8
-9 16 -11 15 -16 -7z"/>
<path d="M1682 801 c-7 -21 -12 -53 -12 -72 l0 -33 16 22 c15 22 17 22 40 8
40 -27 42 -18 16 49 -14 36 -31 65 -37 65 -7 0 -17 -17 -23 -39z"/>
<path d="M600 815 c0 -18 120 -58 134 -44 15 14 -2 25 -63 43 -67 20 -71 20
-71 1z"/>
</g>
</svg>
